<mxfile host="65bd71144e">
    <diagram id="use-case-system-uml25" name="Professional Use Case Diagram - UML 2.5 Compliant">
        <mxGraphModel dx="1030" dy="704" grid="1" gridSize="10" guides="1" tooltips="1" connect="1" arrows="1" fold="1" page="1" pageScale="1" pageWidth="2000" pageHeight="1400" math="1" shadow="0">
            <root>
                <mxCell id="0"/>
                <mxCell id="1" parent="0"/>
                <mxCell id="title" value="Office Supplies Management System&#xa;Use Case Diagram (UML 2.5 Compliant)" style="text;html=1;strokeColor=none;fillColor=none;align=center;verticalAlign=middle;whiteSpace=wrap;rounded=0;fontSize=20;fontStyle=1;fontColor=#1a1a1a;" parent="1" vertex="1">
                    <mxGeometry x="700" y="20" width="600" height="60" as="geometry"/>
                </mxCell>
                <mxCell id="system-boundary" value="Office Supplies Management System" style="rounded=1;whiteSpace=wrap;html=1;fillColor=none;strokeColor=#2D7600;strokeWidth=3;fontSize=16;fontStyle=1;fontColor=#2D7600;verticalAlign=top;align=center;" parent="1" vertex="1">
                    <mxGeometry x="400" y="120" width="1200" height="1200" as="geometry"/>
                </mxCell>
                <mxCell id="employee-actor" value="Employee" style="shape=umlActor;verticalLabelPosition=bottom;verticalAlign=top;html=1;fillColor=#e1f5fe;strokeColor=#01579b;strokeWidth=2;fontSize=12;fontStyle=1;" parent="1" vertex="1">
                    <mxGeometry x="200" y="300" width="60" height="100" as="geometry"/>
                </mxCell>
                <mxCell id="3" style="endArrow=none;html=1;strokeColor=#e65100;strokeWidth=1.5;" parent="1" source="manager-actor" target="view-personal-dashboard" edge="1">
                    <mxGeometry relative="1" as="geometry"/>
                </mxCell>
                <mxCell id="manager-actor" value="Manager" style="shape=umlActor;verticalLabelPosition=bottom;verticalAlign=top;html=1;fillColor=#e1f5fe;strokeColor=#01579b;strokeWidth=2;fontSize=12;fontStyle=1;" parent="1" vertex="1">
                    <mxGeometry x="200" y="600" width="60" height="100" as="geometry"/>
                </mxCell>
                <mxCell id="general-manager-actor" value="General Manager" style="shape=umlActor;verticalLabelPosition=bottom;verticalAlign=top;html=1;fillColor=#e1f5fe;strokeColor=#01579b;strokeWidth=2;fontSize=12;fontStyle=1;" vertex="1" parent="1">
                    <mxGeometry x="200" y="800" width="60" height="100" as="geometry"/>
                </mxCell>
                <mxCell id="admin-actor" value="Admin" style="shape=umlActor;verticalLabelPosition=bottom;verticalAlign=top;html=1;fillColor=#e1f5fe;strokeColor=#01579b;strokeWidth=2;fontSize=12;fontStyle=1;" parent="1" vertex="1">
                    <mxGeometry x="200" y="1050" width="60" height="100" as="geometry"/>
                </mxCell>
                <mxCell id="create-supply-request" value="Create Supply Request" style="ellipse;whiteSpace=wrap;html=1;fillColor=#f1f8e9;strokeColor=#33691e;strokeWidth=2;fontSize=11;" parent="1" vertex="1">
                    <mxGeometry x="500" y="200" width="140" height="70" as="geometry"/>
                </mxCell>
                <mxCell id="track-own-requests" value="Track Own Requests" style="ellipse;whiteSpace=wrap;html=1;fillColor=#f1f8e9;strokeColor=#33691e;strokeWidth=2;fontSize=11;" parent="1" vertex="1">
                    <mxGeometry x="700" y="200" width="140" height="70" as="geometry"/>
                </mxCell>
                <mxCell id="view-inventory" value="View Inventory" style="ellipse;whiteSpace=wrap;html=1;fillColor=#f1f8e9;strokeColor=#33691e;strokeWidth=2;fontSize=11;" parent="1" vertex="1">
                    <mxGeometry x="900" y="200" width="140" height="70" as="geometry"/>
                </mxCell>
                <mxCell id="manage-own-profile" value="Manage Own Profile" style="ellipse;whiteSpace=wrap;html=1;fillColor=#f1f8e9;strokeColor=#33691e;strokeWidth=2;fontSize=11;" parent="1" vertex="1">
                    <mxGeometry x="1100" y="200" width="140" height="70" as="geometry"/>
                </mxCell>
                <mxCell id="view-personal-dashboard" value="View Personal Dashboard" style="ellipse;whiteSpace=wrap;html=1;fillColor=#f1f8e9;strokeColor=#33691e;strokeWidth=2;fontSize=11;" parent="1" vertex="1">
                    <mxGeometry x="1300" y="200" width="140" height="70" as="geometry"/>
                </mxCell>
                <mxCell id="approve-reject-requests" value="&lt;span style=&quot;color: rgb(0, 0, 0);&quot;&gt;Approve/Reject Department Employee Requests&lt;/span&gt;" style="ellipse;whiteSpace=wrap;html=1;fillColor=#fff3e0;strokeColor=#e65100;strokeWidth=2;fontSize=11;" parent="1" vertex="1">
                    <mxGeometry x="500" y="350" width="140" height="70" as="geometry"/>
                </mxCell>
                <mxCell id="update-inventory" value="Update Inventory" style="ellipse;whiteSpace=wrap;html=1;fillColor=#fff3e0;strokeColor=#e65100;strokeWidth=2;fontSize=11;" parent="1" vertex="1">
                    <mxGeometry x="700" y="350" width="140" height="70" as="geometry"/>
                </mxCell>
                <mxCell id="create-purchase-orders" value="Create Purchase Orders" style="ellipse;whiteSpace=wrap;html=1;fillColor=#fff3e0;strokeColor=#e65100;strokeWidth=2;fontSize=11;" parent="1" vertex="1">
                    <mxGeometry x="900" y="350" width="140" height="70" as="geometry"/>
                </mxCell>
                <mxCell id="generate-dept-reports" value="Generate Reports - Dept" style="ellipse;whiteSpace=wrap;html=1;fillColor=#fff3e0;strokeColor=#e65100;strokeWidth=2;fontSize=11;" parent="1" vertex="1">
                    <mxGeometry x="1100" y="350" width="140" height="70" as="geometry"/>
                </mxCell>
                <mxCell id="view-dept-dashboard" value="View Department Dashboard" style="ellipse;whiteSpace=wrap;html=1;fillColor=#fff3e0;strokeColor=#e65100;strokeWidth=2;fontSize=11;" parent="1" vertex="1">
                    <mxGeometry x="1300" y="350" width="140" height="70" as="geometry"/>
                </mxCell>
                <mxCell id="access-purchase-orders" value="Access Purchase Orders" style="ellipse;whiteSpace=wrap;html=1;fillColor=#fff3e0;strokeColor=#e65100;strokeWidth=2;fontSize=11;" parent="1" vertex="1">
                    <mxGeometry x="500" y="500" width="140" height="70" as="geometry"/>
                </mxCell>
                <mxCell id="access-reports-module" value="Access Reports Module" style="ellipse;whiteSpace=wrap;html=1;fillColor=#fff3e0;strokeColor=#e65100;strokeWidth=2;fontSize=11;" parent="1" vertex="1">
                    <mxGeometry x="700" y="500" width="140" height="70" as="geometry"/>
                </mxCell>
                <mxCell id="access-settings" value="Access Settings" style="ellipse;whiteSpace=wrap;html=1;fillColor=#fff3e0;strokeColor=#e65100;strokeWidth=2;fontSize=11;" parent="1" vertex="1">
                    <mxGeometry x="900" y="500" width="140" height="70" as="geometry"/>
                </mxCell>
                <mxCell id="approve-reject-manager-requests" value="Approve/Reject Manager Requests" style="ellipse;whiteSpace=wrap;html=1;fillColor=#e8f5e8;strokeColor=#2e7d32;strokeWidth=2;fontSize=11;" vertex="1" parent="1">
                    <mxGeometry x="1170" y="560" width="140" height="70" as="geometry"/>
                </mxCell>
                <mxCell id="user-management" value="User Management" style="ellipse;whiteSpace=wrap;html=1;fillColor=#fce4ec;strokeColor=#880e4f;strokeWidth=2;fontSize=11;" parent="1" vertex="1">
                    <mxGeometry x="500" y="750" width="140" height="70" as="geometry"/>
                </mxCell>
                <mxCell id="configure-system-settings" value="Configure System Settings" style="ellipse;whiteSpace=wrap;html=1;fillColor=#fce4ec;strokeColor=#880e4f;strokeWidth=2;fontSize=11;" parent="1" vertex="1">
                    <mxGeometry x="700" y="750" width="140" height="70" as="geometry"/>
                </mxCell>
                <mxCell id="backup-system-data" value="Backup System Data" style="ellipse;whiteSpace=wrap;html=1;fillColor=#fce4ec;strokeColor=#880e4f;strokeWidth=2;fontSize=11;" parent="1" vertex="1">
                    <mxGeometry x="900" y="750" width="140" height="70" as="geometry"/>
                </mxCell>
                <mxCell id="full-report-generation" value="Full Report Generation" style="ellipse;whiteSpace=wrap;html=1;fillColor=#fce4ec;strokeColor=#880e4f;strokeWidth=2;fontSize=11;" parent="1" vertex="1">
                    <mxGeometry x="1100" y="750" width="140" height="70" as="geometry"/>
                </mxCell>
                <mxCell id="manage-all-requests" value="Manage All Requests" style="ellipse;whiteSpace=wrap;html=1;fillColor=#fce4ec;strokeColor=#880e4f;strokeWidth=2;fontSize=11;" parent="1" vertex="1">
                    <mxGeometry x="1300" y="750" width="140" height="70" as="geometry"/>
                </mxCell>
                <mxCell id="manage-all-approvals" value="Manage All Approvals" style="ellipse;whiteSpace=wrap;html=1;fillColor=#fce4ec;strokeColor=#880e4f;strokeWidth=2;fontSize=11;" parent="1" vertex="1">
                    <mxGeometry x="500" y="900" width="140" height="70" as="geometry"/>
                </mxCell>
                <mxCell id="manage-suppliers" value="Manage Suppliers" style="ellipse;whiteSpace=wrap;html=1;fillColor=#fce4ec;strokeColor=#880e4f;strokeWidth=2;fontSize=11;" parent="1" vertex="1">
                    <mxGeometry x="700" y="900" width="140" height="70" as="geometry"/>
                </mxCell>
                <mxCell id="full-inventory-management" value="Full Inventory Management" style="ellipse;whiteSpace=wrap;html=1;fillColor=#fce4ec;strokeColor=#880e4f;strokeWidth=2;fontSize=11;" parent="1" vertex="1">
                    <mxGeometry x="900" y="900" width="140" height="70" as="geometry"/>
                </mxCell>
                <mxCell id="view-system-dashboard" value="View System Dashboard" style="ellipse;whiteSpace=wrap;html=1;fillColor=#fce4ec;strokeColor=#880e4f;strokeWidth=2;fontSize=11;" parent="1" vertex="1">
                    <mxGeometry x="1100" y="900" width="140" height="70" as="geometry"/>
                </mxCell>
                <mxCell id="access-users-module" value="Access Users Module" style="ellipse;whiteSpace=wrap;html=1;fillColor=#fce4ec;strokeColor=#880e4f;strokeWidth=2;fontSize=11;" parent="1" vertex="1">
                    <mxGeometry x="1300" y="900" width="140" height="70" as="geometry"/>
                </mxCell>
                <mxCell id="emp-create-request" value="" style="endArrow=none;html=1;strokeColor=#666666;strokeWidth=1.5;" parent="1" source="employee-actor" target="create-supply-request" edge="1">
                    <mxGeometry width="50" height="50" relative="1" as="geometry">
                        <mxPoint x="300" y="400" as="sourcePoint"/>
                        <mxPoint x="350" y="350" as="targetPoint"/>
                    </mxGeometry>
                </mxCell>
                <mxCell id="emp-track-requests" value="" style="endArrow=none;html=1;strokeColor=#666666;strokeWidth=1.5;" parent="1" source="employee-actor" target="track-own-requests" edge="1">
                    <mxGeometry width="50" height="50" relative="1" as="geometry">
                        <mxPoint x="300" y="400" as="sourcePoint"/>
                        <mxPoint x="350" y="350" as="targetPoint"/>
                    </mxGeometry>
                </mxCell>
                <mxCell id="emp-view-inventory" value="" style="endArrow=none;html=1;strokeColor=#666666;strokeWidth=1.5;" parent="1" source="employee-actor" target="view-inventory" edge="1">
                    <mxGeometry width="50" height="50" relative="1" as="geometry">
                        <mxPoint x="300" y="400" as="sourcePoint"/>
                        <mxPoint x="350" y="350" as="targetPoint"/>
                    </mxGeometry>
                </mxCell>
                <mxCell id="emp-manage-profile" value="" style="endArrow=none;html=1;strokeColor=#666666;strokeWidth=1.5;" parent="1" source="employee-actor" target="manage-own-profile" edge="1">
                    <mxGeometry width="50" height="50" relative="1" as="geometry">
                        <mxPoint x="300" y="400" as="sourcePoint"/>
                        <mxPoint x="350" y="350" as="targetPoint"/>
                    </mxGeometry>
                </mxCell>
                <mxCell id="emp-view-dashboard" value="" style="endArrow=none;html=1;strokeColor=#666666;strokeWidth=1.5;" parent="1" source="employee-actor" target="view-personal-dashboard" edge="1">
                    <mxGeometry width="50" height="50" relative="1" as="geometry">
                        <mxPoint x="300" y="400" as="sourcePoint"/>
                        <mxPoint x="350" y="350" as="targetPoint"/>
                    </mxGeometry>
                </mxCell>
                <mxCell id="mgr-create-request" value="" style="endArrow=none;html=1;strokeColor=#e65100;strokeWidth=1.5;" parent="1" source="manager-actor" target="create-supply-request" edge="1">
                    <mxGeometry width="50" height="50" relative="1" as="geometry">
                        <mxPoint x="300" y="600" as="sourcePoint"/>
                        <mxPoint x="350" y="550" as="targetPoint"/>
                    </mxGeometry>
                </mxCell>
                <mxCell id="mgr-track-requests" value="" style="endArrow=none;html=1;strokeColor=#e65100;strokeWidth=1.5;" parent="1" source="manager-actor" target="track-own-requests" edge="1">
                    <mxGeometry width="50" height="50" relative="1" as="geometry">
                        <mxPoint x="300" y="600" as="sourcePoint"/>
                        <mxPoint x="350" y="550" as="targetPoint"/>
                    </mxGeometry>
                </mxCell>
                <mxCell id="mgr-view-inventory" value="" style="endArrow=none;html=1;strokeColor=#e65100;strokeWidth=1.5;" parent="1" source="manager-actor" target="view-inventory" edge="1">
                    <mxGeometry width="50" height="50" relative="1" as="geometry">
                        <mxPoint x="300" y="600" as="sourcePoint"/>
                        <mxPoint x="350" y="550" as="targetPoint"/>
                    </mxGeometry>
                </mxCell>
                <mxCell id="mgr-manage-profile" value="" style="endArrow=none;html=1;strokeColor=#e65100;strokeWidth=1.5;" parent="1" source="manager-actor" target="manage-own-profile" edge="1">
                    <mxGeometry width="50" height="50" relative="1" as="geometry">
                        <mxPoint x="300" y="600" as="sourcePoint"/>
                        <mxPoint x="350" y="550" as="targetPoint"/>
                    </mxGeometry>
                </mxCell>
                <mxCell id="mgr-approve-reject" value="" style="endArrow=none;html=1;strokeColor=#e65100;strokeWidth=1.5;" parent="1" source="manager-actor" target="approve-reject-requests" edge="1">
                    <mxGeometry width="50" height="50" relative="1" as="geometry">
                        <mxPoint x="300" y="600" as="sourcePoint"/>
                        <mxPoint x="350" y="550" as="targetPoint"/>
                    </mxGeometry>
                </mxCell>
                <mxCell id="mgr-update-inventory" value="" style="endArrow=none;html=1;strokeColor=#e65100;strokeWidth=1.5;" parent="1" source="manager-actor" target="update-inventory" edge="1">
                    <mxGeometry width="50" height="50" relative="1" as="geometry">
                        <mxPoint x="300" y="600" as="sourcePoint"/>
                        <mxPoint x="350" y="550" as="targetPoint"/>
                    </mxGeometry>
                </mxCell>
                <mxCell id="mgr-create-purchase-orders" value="" style="endArrow=none;html=1;strokeColor=#e65100;strokeWidth=1.5;" parent="1" source="manager-actor" target="create-purchase-orders" edge="1">
                    <mxGeometry width="50" height="50" relative="1" as="geometry">
                        <mxPoint x="300" y="600" as="sourcePoint"/>
                        <mxPoint x="350" y="550" as="targetPoint"/>
                    </mxGeometry>
                </mxCell>
                <mxCell id="mgr-generate-reports" value="" style="endArrow=none;html=1;strokeColor=#e65100;strokeWidth=1.5;" parent="1" source="manager-actor" target="generate-dept-reports" edge="1">
                    <mxGeometry width="50" height="50" relative="1" as="geometry">
                        <mxPoint x="300" y="600" as="sourcePoint"/>
                        <mxPoint x="350" y="550" as="targetPoint"/>
                    </mxGeometry>
                </mxCell>
                <mxCell id="mgr-view-dept-dashboard" value="" style="endArrow=none;html=1;strokeColor=#e65100;strokeWidth=1.5;" parent="1" source="manager-actor" target="view-dept-dashboard" edge="1">
                    <mxGeometry width="50" height="50" relative="1" as="geometry">
                        <mxPoint x="300" y="600" as="sourcePoint"/>
                        <mxPoint x="350" y="550" as="targetPoint"/>
                    </mxGeometry>
                </mxCell>
                <mxCell id="mgr-access-purchase-orders" value="" style="endArrow=none;html=1;strokeColor=#e65100;strokeWidth=1.5;" parent="1" source="manager-actor" target="access-purchase-orders" edge="1">
                    <mxGeometry width="50" height="50" relative="1" as="geometry">
                        <mxPoint x="300" y="600" as="sourcePoint"/>
                        <mxPoint x="350" y="550" as="targetPoint"/>
                    </mxGeometry>
                </mxCell>
                <mxCell id="mgr-access-reports" value="" style="endArrow=none;html=1;strokeColor=#e65100;strokeWidth=1.5;" parent="1" source="manager-actor" target="access-reports-module" edge="1">
                    <mxGeometry width="50" height="50" relative="1" as="geometry">
                        <mxPoint x="300" y="600" as="sourcePoint"/>
                        <mxPoint x="350" y="550" as="targetPoint"/>
                    </mxGeometry>
                </mxCell>
                <mxCell id="mgr-access-settings" value="" style="endArrow=none;html=1;strokeColor=#e65100;strokeWidth=1.5;" parent="1" source="manager-actor" target="access-settings" edge="1">
                    <mxGeometry width="50" height="50" relative="1" as="geometry">
                        <mxPoint x="300" y="600" as="sourcePoint"/>
                        <mxPoint x="350" y="550" as="targetPoint"/>
                    </mxGeometry>
                </mxCell>
                <mxCell id="genmgr-approve-reject-manager-requests" value="" style="endArrow=none;html=1;strokeColor=#2e7d32;strokeWidth=1.5;" edge="1" parent="1" source="general-manager-actor" target="approve-reject-manager-requests">
                    <mxGeometry width="50" height="50" relative="1" as="geometry">
                        <mxPoint x="300" y="800" as="sourcePoint"/>
                        <mxPoint x="350" y="750" as="targetPoint"/>
                    </mxGeometry>
                </mxCell>
                <mxCell id="admin-view-inventory" value="" style="endArrow=none;html=1;strokeColor=#880e4f;strokeWidth=1.5;" parent="1" source="admin-actor" target="view-inventory" edge="1">
                    <mxGeometry width="50" height="50" relative="1" as="geometry">
                        <mxPoint x="300" y="1100" as="sourcePoint"/>
                        <mxPoint x="350" y="1050" as="targetPoint"/>
                    </mxGeometry>
                </mxCell>
                <mxCell id="admin-manage-profile" value="" style="endArrow=none;html=1;strokeColor=#880e4f;strokeWidth=1.5;" parent="1" source="admin-actor" target="manage-own-profile" edge="1">
                    <mxGeometry width="50" height="50" relative="1" as="geometry">
                        <mxPoint x="300" y="1100" as="sourcePoint"/>
                        <mxPoint x="350" y="1050" as="targetPoint"/>
                    </mxGeometry>
                </mxCell>
                <mxCell id="admin-approve-reject" value="" style="endArrow=none;html=1;strokeColor=#880e4f;strokeWidth=1.5;" parent="1" source="admin-actor" target="approve-reject-requests" edge="1">
                    <mxGeometry width="50" height="50" relative="1" as="geometry">
                        <mxPoint x="300" y="1100" as="sourcePoint"/>
                        <mxPoint x="350" y="1050" as="targetPoint"/>
                    </mxGeometry>
                </mxCell>
                <mxCell id="admin-update-inventory" value="" style="endArrow=none;html=1;strokeColor=#880e4f;strokeWidth=1.5;" parent="1" source="admin-actor" target="update-inventory" edge="1">
                    <mxGeometry width="50" height="50" relative="1" as="geometry">
                        <mxPoint x="300" y="1100" as="sourcePoint"/>
                        <mxPoint x="350" y="1050" as="targetPoint"/>
                    </mxGeometry>
                </mxCell>
                <mxCell id="admin-create-purchase-orders" value="" style="endArrow=none;html=1;strokeColor=#880e4f;strokeWidth=1.5;" parent="1" source="admin-actor" target="create-purchase-orders" edge="1">
                    <mxGeometry width="50" height="50" relative="1" as="geometry">
                        <mxPoint x="300" y="1100" as="sourcePoint"/>
                        <mxPoint x="350" y="1050" as="targetPoint"/>
                    </mxGeometry>
                </mxCell>
                <mxCell id="admin-generate-reports" value="" style="endArrow=none;html=1;strokeColor=#880e4f;strokeWidth=1.5;" parent="1" source="admin-actor" target="generate-dept-reports" edge="1">
                    <mxGeometry width="50" height="50" relative="1" as="geometry">
                        <mxPoint x="300" y="1100" as="sourcePoint"/>
                        <mxPoint x="350" y="1050" as="targetPoint"/>
                    </mxGeometry>
                </mxCell>
                <mxCell id="admin-view-dept-dashboard" value="" style="endArrow=none;html=1;strokeColor=#880e4f;strokeWidth=1.5;" parent="1" source="admin-actor" target="view-dept-dashboard" edge="1">
                    <mxGeometry width="50" height="50" relative="1" as="geometry">
                        <mxPoint x="300" y="1100" as="sourcePoint"/>
                        <mxPoint x="350" y="1050" as="targetPoint"/>
                    </mxGeometry>
                </mxCell>
                <mxCell id="admin-access-purchase-orders" value="" style="endArrow=none;html=1;strokeColor=#880e4f;strokeWidth=1.5;" parent="1" source="admin-actor" target="access-purchase-orders" edge="1">
                    <mxGeometry width="50" height="50" relative="1" as="geometry">
                        <mxPoint x="300" y="1100" as="sourcePoint"/>
                        <mxPoint x="350" y="1050" as="targetPoint"/>
                    </mxGeometry>
                </mxCell>
                <mxCell id="admin-access-reports" value="" style="endArrow=none;html=1;strokeColor=#880e4f;strokeWidth=1.5;" parent="1" source="admin-actor" target="access-reports-module" edge="1">
                    <mxGeometry width="50" height="50" relative="1" as="geometry">
                        <mxPoint x="300" y="1100" as="sourcePoint"/>
                        <mxPoint x="350" y="1050" as="targetPoint"/>
                    </mxGeometry>
                </mxCell>
                <mxCell id="admin-access-settings" value="" style="endArrow=none;html=1;strokeColor=#880e4f;strokeWidth=1.5;" parent="1" source="admin-actor" target="access-settings" edge="1">
                    <mxGeometry width="50" height="50" relative="1" as="geometry">
                        <mxPoint x="300" y="1100" as="sourcePoint"/>
                        <mxPoint x="350" y="1050" as="targetPoint"/>
                    </mxGeometry>
                </mxCell>
                <mxCell id="admin-user-management" value="" style="endArrow=none;html=1;strokeColor=#880e4f;strokeWidth=1.5;" parent="1" source="admin-actor" target="user-management" edge="1">
                    <mxGeometry width="50" height="50" relative="1" as="geometry">
                        <mxPoint x="300" y="1100" as="sourcePoint"/>
                        <mxPoint x="350" y="1050" as="targetPoint"/>
                    </mxGeometry>
                </mxCell>
                <mxCell id="admin-configure-system" value="" style="endArrow=none;html=1;strokeColor=#880e4f;strokeWidth=1.5;" parent="1" source="admin-actor" target="configure-system-settings" edge="1">
                    <mxGeometry width="50" height="50" relative="1" as="geometry">
                        <mxPoint x="300" y="1100" as="sourcePoint"/>
                        <mxPoint x="350" y="1050" as="targetPoint"/>
                    </mxGeometry>
                </mxCell>
                <mxCell id="admin-backup-data" value="" style="endArrow=none;html=1;strokeColor=#880e4f;strokeWidth=1.5;" parent="1" source="admin-actor" target="backup-system-data" edge="1">
                    <mxGeometry width="50" height="50" relative="1" as="geometry">
                        <mxPoint x="300" y="1100" as="sourcePoint"/>
                        <mxPoint x="350" y="1050" as="targetPoint"/>
                    </mxGeometry>
                </mxCell>
                <mxCell id="admin-full-reports" value="" style="endArrow=none;html=1;strokeColor=#880e4f;strokeWidth=1.5;" parent="1" source="admin-actor" target="full-report-generation" edge="1">
                    <mxGeometry width="50" height="50" relative="1" as="geometry">
                        <mxPoint x="300" y="1100" as="sourcePoint"/>
                        <mxPoint x="350" y="1050" as="targetPoint"/>
                    </mxGeometry>
                </mxCell>
                <mxCell id="admin-manage-all-requests" value="" style="endArrow=none;html=1;strokeColor=#880e4f;strokeWidth=1.5;" parent="1" source="admin-actor" target="manage-all-requests" edge="1">
                    <mxGeometry width="50" height="50" relative="1" as="geometry">
                        <mxPoint x="300" y="1100" as="sourcePoint"/>
                        <mxPoint x="350" y="1050" as="targetPoint"/>
                    </mxGeometry>
                </mxCell>
                <mxCell id="admin-manage-all-approvals" value="" style="endArrow=none;html=1;strokeColor=#880e4f;strokeWidth=1.5;" parent="1" source="admin-actor" target="manage-all-approvals" edge="1">
                    <mxGeometry width="50" height="50" relative="1" as="geometry">
                        <mxPoint x="300" y="1100" as="sourcePoint"/>
                        <mxPoint x="350" y="1050" as="targetPoint"/>
                    </mxGeometry>
                </mxCell>
                <mxCell id="admin-manage-suppliers" value="" style="endArrow=none;html=1;strokeColor=#880e4f;strokeWidth=1.5;" parent="1" source="admin-actor" target="manage-suppliers" edge="1">
                    <mxGeometry width="50" height="50" relative="1" as="geometry">
                        <mxPoint x="300" y="1100" as="sourcePoint"/>
                        <mxPoint x="350" y="1050" as="targetPoint"/>
                    </mxGeometry>
                </mxCell>
                <mxCell id="admin-full-inventory" value="" style="endArrow=none;html=1;strokeColor=#880e4f;strokeWidth=1.5;" parent="1" source="admin-actor" target="full-inventory-management" edge="1">
                    <mxGeometry width="50" height="50" relative="1" as="geometry">
                        <mxPoint x="300" y="1100" as="sourcePoint"/>
                        <mxPoint x="350" y="1050" as="targetPoint"/>
                    </mxGeometry>
                </mxCell>
                <mxCell id="admin-view-system-dashboard" value="" style="endArrow=none;html=1;strokeColor=#880e4f;strokeWidth=1.5;" parent="1" source="admin-actor" target="view-system-dashboard" edge="1">
                    <mxGeometry width="50" height="50" relative="1" as="geometry">
                        <mxPoint x="300" y="1100" as="sourcePoint"/>
                        <mxPoint x="350" y="1050" as="targetPoint"/>
                    </mxGeometry>
                </mxCell>
                <mxCell id="admin-access-users-module" value="" style="endArrow=none;html=1;strokeColor=#880e4f;strokeWidth=1.5;" parent="1" source="admin-actor" target="access-users-module" edge="1">
                    <mxGeometry width="50" height="50" relative="1" as="geometry">
                        <mxPoint x="300" y="1100" as="sourcePoint"/>
                        <mxPoint x="350" y="1050" as="targetPoint"/>
                    </mxGeometry>
                </mxCell>
            </root>
        </mxGraphModel>
    </diagram>
</mxfile>